<?xml version="1.0" encoding="UTF-8"?><svg id="a" xmlns="http://www.w3.org/2000/svg" viewBox="0 0 226.27 57.18"><defs><style>.b{fill:#453a49;}</style></defs><path class="b" d="M45.33,2.98s-1.43-.87-4.63,.11-14.86,.99-14.86,.99c0,0-.56,.37-.53,.74,0,0-.11,1.58,1.46,1.88,1.58,.3,6.97,.22,6.97,.22l-5.47,4.45s-6.72-4.02-15.66-1.83C3.66,11.74,.36,17.98,.36,17.98c0,0-1.35,3.26,1.18,5.35,2.08,1.72,8.45,1.79,8.86,1.81,1.78,.1,6.26-.94,6.26-.94,0,0,6.1-2.79,12.8-8.22l9.07,7.77s.61,.78,2.25,1.09-.36-2.8-.36-2.8l-7.98-8.37s9.4-6.68,14.29-6.97c0,0,3.25-2.5-1.4-3.72ZM24.52,13.3c-.26,.69-.73,1.29-1.2,1.84-.44,.52-.97,.97-1.6,1.22,0,0,0,.02-.02,.02-.39,.23-.76,.49-1.14,.74-.14,.09-.28,.19-.43,.26-.06,.03-.13,.05-.19,.08-.22,.14-.42,.28-.66,.41-1.69,.92-3.48,1.57-5.5,1.93-2.33,.41-8.5,1.76-8.94-1.11-.09-.18-.12-.38-.06-.61,.57-2.22,3.62-3.88,6.19-4.77,1.31-.45,2.75-.72,4.18-.81,.04,0,.07-.02,.11-.02,1.54-.07,3.1-.26,4.64-.18,.72,.04,1.43,.11,2.15,.16,.74,.05,1.48,.07,2.22,.12,.43,.03,.49,.48,.25,.71Z"/><path class="b" d="M59.61,16.14s-.93-2.19-3.36-3.22c-2.43-1.03-3.52-.06-6.38,1.79s-4.19,1.63-4.19,1.63c-1.59,.68-2.33,2.95-2.33,2.95-1.01,3.49,4.41,5.45,4.41,5.45,0,0,6.16,1.43,9.62-1.65s2.23-6.94,2.23-6.94Zm-6.87,3.77c-1.04,.8-2.57,1.13-3.82,.6-.57-.24-1.05-.66-1.08-1.3-.03-.51,.23-.92,.62-1.19,.05-.08,.12-.15,.23-.18,.49-.15,.97-.38,1.42-.63,.4-.22,.74-.53,1.14-.75,.66-.36,1.67-.51,2.31-.03,1.24,.91,.08,2.79-.82,3.49Z"/><line class="b" x1="48.2" y1="17.17" x2="49.09" y2="16.91"/><path class="b" d="M66.57,13.76s-1.44-1.02-3.22,2.42-11.11,17.62-11.11,17.62c0,0-3.89,4.46-3.9,7.02s2.49,2.21,2.49,2.21c0,0,1.12-.31,1.71-2.86s4.77-8.35,4.77-8.35l9.13-13.92s.32-.41,.34-.86c0,0,.61-.24,.99-1.82,0,0-.56-1.16-1.2-1.47Z"/><path class="b" d="M66.97,5.37s-1.91,2.67,.57,4.5,4.32-1.5,4.32-1.5c0,0,.85-2.89-2.87-3.86,0,0-1.45,.19-2.02,.86Z"/><path class="b" d="M80.01,20.79c-.15-.81-.13-1.63-.03-2.45,0,0,1.97-4.59-3.82-4.4-5.79,.19-8.49,4.65-8.49,4.65,0,0-2.25,3.41,.94,4.81,3.19,1.4,7.29-1.36,7.29-1.36,0,0,.74-.55,1.21-1.05,0,0-.03,3.02,1.58,4.35,1.61,1.33,3.94,.34,3.94,.34,0,0,3.52-2.08,4.97-4.71-2.99,.17-5.63,.16-7.6-.17Zm-5.36-1.89c-.32,.23-.66,.42-1,.62-.39,.23-.78,.45-1.21,.6-.47,.17-1.21,.23-1.42-.35-.09-.1-.15-.22-.15-.37-.03-.76,.69-1.28,1.28-1.61,.56-.31,1.16-.66,1.78-.81,.58-.14,1.56-.02,1.56,.78,0,.5-.47,.86-.84,1.13Z"/><path class="b" d="M112.98,11.79s4.11,1.11,7.42-1.78-.08-4.66-.08-4.66c0,0-6-1.63-12.22,1.45s-8.77,7.49-8.77,7.49c0,0-2.66,4.23-.28,8.9s5.5,4.37,5.5,4.37l-.92,1.21-1.66,2.19-11.05,14.57s-4.89,7.26-9.45,6.14c0,0-.66-.88,1.16-2.15l18.58-18.39,3-2.75-26.75,21.02s-4.48,3.01-3.18,6.09,12.21,.95,12.21,.95c0,0,1.85,0,4.56-4.09s6.55-10.42,6.55-10.42c0,0,4.51-6.51,8.4-10.65s8-8.19,12.06-10.89c0,0,1.98-2.26-3.62-3,0,0-3.57,.25-4.16,2.71s-6.72,2.06-6.72,2.06c0,0-4.44-1.43-.86-7.2s11.17-5.74,11.17-5.74c0,0,.21,.92-.69,1.11s-.82,.83-.82,.83c0,0,.13,.52,.62,.62Z"/><path class="b" d="M154.82,12.7s-2.58-.37-4.99,4.6-5.96,3.86-5.96,3.86c0,0-1.14-.22-.14-1.94,1-1.72,2.45-3.32,2.45-3.32,0,0,3.08-1.1,1.66-1.99,0,0-.54-1.91-3.82-.67,0,0-1.71,.54-1.73,2.54-.01,2-4.09,4.46-4.09,4.46,0,0-1.97,.74-2.27-.82-.3-1.56,2.81-3.61,2.81-3.61,0,0,6.41-6.94,7.2-9.96,.79-3.02-4.04-1.63-4.04-1.63,0,0-1.37,.76-2.38,2.62-1.01,1.87-3.82,5.52-3.82,5.52,0,0-1.1,3.11-3.4,3.39,0,0,1.31-3.45-4.22-3.88-5.53-.42-6.15,3.55-6.15,3.55,0,0,.39,1.19-1.74,3.09,0,0-2.13,4.08,1.55,6.19,3.68,2.11,7.11-.82,7.11-.82,0,0,2.11-1.93,2.84-4.55,0,0,1.15-.05,2.21-.42,0,0-.11,3.58,2.36,4.41,2.47,.83,4.83-1.25,4.83-1.25,0,0,.34,1.96,3.04,1.79,2.7-.16,4.7-1.75,4.7-1.75,0,0-.06,2.04,.94,1.88,0,0,1.84,.21,2.88-2.7,1.04-2.91,3.1-4.79,3.1-4.79,0,0,3.31-2.11-.93-3.78Zm-28.77,8.88c-.81,.2-3.51,.77-3.6-.21-.05-.54,.16-.87,.46-1.03,.05-.1,.11-.19,.19-.27,.02-.02,.11-.14,.11-.14,.05-.06,.09-.12,.13-.18,.09-.13,.18-.26,.25-.4,.05-.08,.09-.17,.14-.25,0-.01,.05-.11,.07-.15,.02-.04,.05-.13,.06-.14,.03-.07,.06-.15,.09-.23,.11-.32,2.01-4.16,4.09-3.33,.97,.39,1.26,1.55,1.32,2.53,.12,1.95-1.79,3.42-3.3,3.8Z"/><path class="b" d="M175.53,.12s-2.58-.84-4.76,1.94c-2.18,2.78-4.96,6.77-4.96,6.77,0,0-2.34,3.58-4.21,6.99,0,0-.22,.85-1.99,1.46,0,0-.53,1.83,.45,2.25,0,0-.75,1.31-.34,3.17s2.47,1.5,2.47,1.5c0,0,3.81-.31,6.91-5.43,0,0,1.24-1.53-1.53-2.66,0,0,3.52-6.16,6.1-9.73,2.58-3.57,3.07-3.94,3.07-3.94,0,0,.71-1.4-1.21-2.32Zm-10.72,19.73c-.14,.6-.7,1.04-1.19,1.35-.26,.17-.54,.29-.83,.4-.26,.1-.5,.14-.77,.17-.21,.02-.43-.12-.57-.26-.03-.03-.04-.06-.06-.09-.14-.11-.25-.27-.29-.44-.05-.22,0-.43,.1-.63,.08-.16,.18-.31,.3-.45,.25-.3,.56-.56,.9-.75,.12-.07,.24-.13,.37-.18,.41-.17,.87-.25,1.3-.18,.15,0,.28,.05,.41,.12,.09,.05,.17,.13,.22,.22,.16,.22,.19,.46,.12,.72Z"/><path class="b" d="M182.56,21.51s-4.04-.02-4.4-2.02c0,0-.13-.87,5.32-1.5,0,0,2.37-1.81,.6-3.53s-2.23-2.76-4.43-2.94-4.12,2.56-4.12,2.56c0,0-.57,.9-.67,2.45,0,0-3.29,.22-4.11,.78s-.81,1.64-.81,1.64c0,0,.43,1.69,4.32,1.11,0,0,1.02,3.48,5.05,3.76,0,0,1.95-.26,3.25-2.32Z"/><path class="b" d="M191.87,13.09s-.03-1.54-1.72-1.52-2.13,1.96-2.13,1.96c0,0-1.4,5.1-.27,8.59s4.48,3.07,4.48,3.07c0,0,1.43-.1,2.08-2.97s4.23-10.38,10.84-12.65c0,0,1-1.85-1.91-1.34s-8.79,3.82-12.91,10.59c0,0-.93-.22-.19-1.21s2.15-3.48,1.72-4.53Z"/><path class="b" d="M206.66,19.83s2.6-1.18,2.13-3.87-3.99-1.98-3.99-1.98c0,0-5.85,2.72-4.18,7.6,0,0,1.08,1.78,3.81,1.64,0,0,3.85,4.4,8.74,3.77s6.88-2.5,6.88-2.5c0,0-12.69-.88-13.39-4.66Z"/></svg>